<svg width="490" height="400" fill="none" xmlns="http://www.w3.org/2000/svg"><path fill-rule="evenodd" clip-rule="evenodd" d="M351.826 65.943c82.833-36.147 130.574 50.72 105.485 108.546-21.062 48.546-15.615 60.22 1.978 97.926a1358.4 1358.4 0 016.947 15.059c29.9 66.129-2.531 131.647-105.6 100.803-43.706-13.079-67.803-5.539-92.36 2.145-22.523 7.047-45.433 14.216-84.213 5.708-67.975-14.912-72.298-56.027-69.805-87.891 1.325-16.936-10.775-31.82-24.369-48.541-16.656-20.487-35.552-43.73-34.74-76.882.704-28.746 15.75-36.541 29.902-43.874 11.656-6.039 22.707-11.764 24.644-28.619 1.103-9.599.974-19.38.847-29.016-.415-31.397-.81-61.256 41.506-78.234 46.866-11.97 82.492 13.333 114.705 36.212 29.217 20.75 55.627 39.508 85.073 26.658zM18.086 78.5C8.099 78.499 0 70.399 0 60.409c0-9.992 8.098-18.092 18.087-18.092 9.989 0 18.086 8.1 18.086 18.091 0 9.992-8.097 18.09-18.086 18.09zm455.23-44.736a8.343 8.343 0 1016.684 0 8.343 8.343 0 10-16.684 0zM51.305 395.566c-13.444 0-24.34-10.9-24.34-24.346s10.896-24.345 24.34-24.345c13.441 0 24.34 10.899 24.34 24.345s-10.899 24.346-24.34 24.346z" fill="#4D8850"/><path fill-rule="evenodd" clip-rule="evenodd" d="M424.895 230.182l25.324 113.49a4.629 4.629 0 01-3.451 5.512 4.628 4.628 0 01-5.557-3.377L412.21 230.182h12.685z" fill="#B1DAB1" stroke="#B1DAB1"/><path fill-rule="evenodd" clip-rule="evenodd" d="M253.323 197.011l-2.164 165.074a4.629 4.629 0 01-9.256 0l-2.163-165.074a4.629 4.629 0 014.628-4.69h4.326a4.63 4.63 0 014.629 4.69z" fill="#B1DAB1"/><path d="M253.323 197.011l-2.164 165.074a4.629 4.629 0 01-9.256 0l-2.163-165.074a4.629 4.629 0 014.628-4.69h4.326a4.63 4.63 0 014.629 4.69" stroke="#B1DAB1"/><path fill-rule="evenodd" clip-rule="evenodd" d="M350.967 233.264l-25.324 113.49a4.628 4.628 0 003.451 5.512 4.628 4.628 0 005.557-3.377l29.001-115.625h-12.685z" fill="#B1DAB1" stroke="#B1DAB1"/><path fill-rule="evenodd" clip-rule="evenodd" d="M118.162 320.82l37.413-148.773c4.562.128 9.124.251 13.686.355l-42.152 150.793a4.628 4.628 0 01-8.947-2.375z" fill="#B1DAB1"/><path d="M118.162 320.82l37.413-148.773c4.562.128 9.124.251 13.686.355l-42.152 150.793a4.628 4.628 0 01-8.947-2.375" stroke="#B1DAB1"/><path fill-rule="evenodd" clip-rule="evenodd" d="M299.993 185.794l21.743 128.826a4.24 4.24 0 01-3.391 4.897 4.24 4.24 0 01-4.942-3.325L287.97 185.794h12.023zm-95.772-10.28l-21.743 124.258a4.238 4.238 0 003.391 4.896 4.239 4.239 0 004.941-3.326l25.433-125.828h-12.022z" fill="#B1DAB1" stroke="#B1DAB1"/><path fill-rule="evenodd" clip-rule="evenodd" d="M326.978 165.385c-121.258-12.909-201.195-5.998-215.414 2.675-17.462 10.653 17.864 15.275 53.412 20.204 29.26 4.057 44.131 23.301 86.393 21.397s51.186-23.867 71.936-27.427c31.575-5.417 18.885-15.229 3.673-16.849z" fill="#fff"/><path d="M344.944 333.626c26.033 2.822 76.692 5.482 94.987-2.603 1.302-.576 1.588-2.299 1.58-3.696-.027-5.3-6.494-7.028-18.417-8.362-9.518-1.067-22.132-1.616-35.517-1.547-13.386.069-25.993.746-35.5 1.91-11.91 1.456-18.358 3.25-18.331 8.55a5.053 5.053 0 001.618 3.68c1.655 1.558 4.146 1.479 9.58 2.068" stroke="#fff" stroke-width="5"/><path fill-rule="evenodd" clip-rule="evenodd" d="M396.476 220.84l5.003 154.375a4.33 4.33 0 01-8.652.393l-9.047-154.19a4.33 4.33 0 014.126-4.58l4.044-.184a4.33 4.33 0 014.526 4.186z" fill="#B1DAB1"/><path d="M396.476 220.84l5.003 154.375a4.33 4.33 0 01-8.652.393l-9.047-154.19a4.33 4.33 0 014.126-4.58l4.044-.184a4.33 4.33 0 014.526 4.186" stroke="#B1DAB1"/><path fill-rule="evenodd" clip-rule="evenodd" d="M328.089 165.863h-54.066v7.17h56.896v-4.34a2.83 2.83 0 00-2.83-2.83z" fill="#00789A"/><path fill-rule="evenodd" clip-rule="evenodd" d="M259.835 118.226l19.179 50.55-6.705 2.543-20.182-53.195 4.057-1.54a2.832 2.832 0 013.651 1.642z" fill="#00789A"/><path fill-rule="evenodd" clip-rule="evenodd" d="M261.011 121.326l14.83 39.087-2.723 1.034-14.831-39.088 2.724-1.033z" fill="#fff"/><path fill-rule="evenodd" clip-rule="evenodd" d="M275.48 175h53.298a2.142 2.142 0 000-4.283H269.49a6.33 6.33 0 005.99 4.283z" fill="#004C61"/><path fill-rule="evenodd" clip-rule="evenodd" d="M269.966 172.159l-19.333-51.964a1.421 1.421 0 01.837-1.828l1.35-.503a1.422 1.422 0 011.827.838l20.324 54.628-1.349.502a2.844 2.844 0 01-3.656-1.673zm8.269-3.227h31.839v-3.07h-30.411l-1.428 3.07zM346.681 41.92c-5.067 4.579-8.269 8.898-7.909 15.718.606 11.49 7.35 19.69 16.324 24.72 3.95 2.215 4.417 12.576 3.046 19.541-2.087 10.602 5.52 24.641 18.846 27.924 25.902 6.383 37.598-8.813 42.756-20.291 5.546-12.343 2.725-26.85-6.522-36.729-13.315-14.224-28.524-35.915-49.179-37.438-7.442-.549-13.309 2.894-17.362 6.556z" fill="#004C61"/><path fill-rule="evenodd" clip-rule="evenodd" d="M302.65 144.582c1.006-1.85 7.107-3.464 12.659-2.259 0 0 .902 7.788.547 8.352-2.141-1.714-7.319-1.673-8.996-.963-1.846.783-3.777-.16-2.884-2.068.176-.376.573-.738 1.128-1.066-.054.01-.119.025-.166.033-1.981.316-3.145-.454-2.288-2.029z" fill="#C56868"/><path fill-rule="evenodd" clip-rule="evenodd" d="M301.279 145.874c1.017 1.725 3.015-.5 5.297-.5 3.331 0 7.404 1.678 7.404 3.515 0 1.554-4.287 2.125-6.384 1.713-3.412-.668-5.232.698-4.422 2.363.428.884 1.439 1.261 4.116 2.011 3.24.907 8.067 5.18 18.014 7.46 6.586 1.51 13.596 4.68 25.461 5.178 26.271 1.104 40.095-14.253 40.747-15.029-3.873-2.879-12.915-12.175-14.091-12.861-12.664 19.714-40.848 14.104-46.502 11.67-4.043-1.724-7.923-8.304-15.717-10.341-7.956-2.078-14.94 3.096-13.923 4.821z" fill="#DF7E80"/><path fill-rule="evenodd" clip-rule="evenodd" d="M345.848 72.44c2.67 4.377-1.064 7.958.444 9.375 1.518 1.405 3.929.653 5.139 2.263 1.211 1.622 1.809 6.256 6.046 9.778 1.528 1.27 3.437 1.213 4.476 1.166.034 0 .057 0 .092-.01h.011c.765-.024 1.611-.207 2.456-.412 0 0 .011-.011.022-.011 2.251-.549 4.615-1.36 6.282-.697.24.091.457.206.663.365a8.05 8.05 0 011.302 1.222c1.36 1.554 1.766 9.289 1.245 13.559-.612 5.012-2.51 10.851-2.51 10.851l22.761-20.286s-9.994-2.855-12.609-8.955a7.435 7.435 0 01-.504-4.454c.72-3.861 1.189-8.716.915-13.421-.366-6.477-2.137-12.679-6.556-15.637-14.929-9.983-33.11-3.424-33.11-3.424-3.038 11.255 1.96 16.31 3.435 18.727z" fill="#FBA1A2"/><path fill-rule="evenodd" clip-rule="evenodd" d="M362.01 95.011h.046c.765-.023 1.611-.206 2.455-.411 0 0 .012-.011.023-.011 2.251-.549 4.615-1.36 6.282-.697.24.091.457.205.663.366.434.331.891.73 1.302 1.221.56-1.484 2.604-3.21 8.201-4.626.24-.057.468-.125.686-.205 7.104-2.342 4.295-11.034.411-17.875-2.262-3.998-4.9-7.368-6.134-8.476-3.426-3.038-4.191-.548-4.191-.548 7.138 12.95 1.998 28.235-9.744 31.262z" fill="#DF7E80"/><path clip-rule="evenodd" d="M341.505 73.053c1.527 3.274 3.545 5.564 4.508 5.115.963-.45.505-3.467-1.023-6.742-1.527-3.273-3.545-5.563-4.509-5.114-.962.45-.504 3.468 1.024 6.741z" stroke="#fff" stroke-width="1.756"/><path fill-rule="evenodd" clip-rule="evenodd" d="M366.465 139.409c0 1.343.194 2.41.422 3.221v.011c1.462 5.277 6.408 11.856 10.36 17.396h.012c1.907 2.685 3.598 5.117 4.557 7.047 1.404 2.833-2.725 8.154 2.193 9.423.285 4.296 39.644 14.323 37.811 2.967 8.091-6.485-.761-10.471-4.378-31.738-1.723-10.126-2.604-29.561-9.161-39.841-6.545-10.28-19.761-13.706-19.761-13.706-3.917 13.992-16.105 18.161-16.105 18.161s-5.948 19.189-5.95 27.059z" fill="#FFE121"/><path fill-rule="evenodd" clip-rule="evenodd" d="M366.887 142.641c1.462 5.277 6.408 11.857 10.36 17.396h.012c1.141.229 2.272.149 3.346-.308 2.902-1.256 20.571-37.354 3.713-28.513-5.129 2.695-9.138 12.43-17.431 11.425z" fill="#F4C362"/><path fill-rule="evenodd" clip-rule="evenodd" d="M243.13 289.715c8.179-9.175 32.918-17.058 32.918-17.058.179 1.715.704 6.498-2.739 10.21-3.947 4.255-11.283 11.753-16.063 14.573-6.638 3.917-17.346 4.63-17.346-1.759 0-2.667 2.441-5.081 3.23-5.966z" fill="#fff"/><path fill-rule="evenodd" clip-rule="evenodd" d="M271.475 264.225c2.793.904 3.58 2.355 4.187 5.06 1.734 7.736-.772 10.97-4.138 13.939-3.476 3.068-10.416 10.557-16.761 13.025-10.422 4.056-14.29 1.048-13.228-4.087.379-1.831 1.417-3.47 2.767-4.764 6.321-6.061 8.92-8.883 14.871-14.383 2.404-2.221 9.566-9.675 12.302-8.79z" fill="#FFE121"/><path fill-rule="evenodd" clip-rule="evenodd" d="M252.955 296.905c-4.465-4.106-8.368-8.731-8.261-9.885 0 0-5.866 5.769-4.33 8.554 3.308 6.003 12.591 1.331 12.591 1.331z" fill="#fff"/><path fill-rule="evenodd" clip-rule="evenodd" d="M363.206 298.759s3.991 10.024 4.657 11.547c.666 1.523 4.461 4.686 3.753 9.707-.556 3.938-22.707 6.901-22.707 6.901s8.356-10.57 8.143-14.183c-.147-2.522-3.667-10.977-3.667-10.977l9.821-2.995z" fill="#FBA1A2"/><path fill-rule="evenodd" clip-rule="evenodd" d="M352.321 307.401s10.384 1.875 13.808-1.338c0 0-6.529-33.473-10.082-47.111-3.86-14.791-11.284-31.262-11.284-31.262s2.07-.41 5.131-.455c7.87-.081 23.562-.013 36.833-1.452 5.083-.537 9.79-1.246 13.49-2.148 17.133-4.18-29.321-27.025-49.115-28.166-10.794-.618-18.755 2.935-23.769 6.305-4.192 2.809-6.317 5.493-6.317 5.493a10.458 10.458 0 00-.674 1.542c-6.327 16.585 13.099 55.61 31.979 98.592z" fill="#64B564"/><path opacity=".3" fill-rule="evenodd" clip-rule="evenodd" d="M319.197 215.357c7.725-14.261 38.564 2.619 25.566 12.333 9.334-1.243 28.692-.468 41.965-1.907.24-.8.24-1.703-.035-2.719-3.406-12.49-29.802-21.965-49.825-22.84-15.496-.678-17.448 12.574-17.662 14.756-.019.195-.009.377-.009.377z" fill="#1B2125"/><path fill-rule="evenodd" clip-rule="evenodd" d="M370.788 313.758s-.666-2.396-1.552-1.767c-1.034.736-6.014 2.901-7.941 3.259-1.927.356-4.622.723-5.515.224-.892-.5-1.552 2.337-1.552 2.337s3.433 1.147 7.995.25c4.176-.821 8.565-4.303 8.565-4.303z" fill="#fff"/><path fill-rule="evenodd" clip-rule="evenodd" d="M332.713 345.851c.479.732 1.062.96 1.062.96l43.267-18.972s.422-9.538-6.248-14.083c0 0-6.111 3.346-10.212 3.7-4.649.4-5.95-.856-5.95-.856s-.846 2.672-2.913 5.893c-.183.309-.4.628-.629.948a20.84 20.84 0 01-1.142 1.531c-.228.308-.491.616-.754.914a18.166 18.166 0 01-1.45 1.519c-.274.286-.571.56-.868.8-.195.183-.388.353-.583.514a9.115 9.115 0 01-.811.845c-.274.25-.571.502-.89.765-1.543 1.256-3.53 2.536-5.289 3.758-3.072 2.124-6.133 4.306-6.865 6.91-.707 2.536-.285 4.021.275 4.854z" fill="#FFE121"/><path fill-rule="evenodd" clip-rule="evenodd" d="M332.713 345.851l11.879-4.549s-1.502-3.429-5.289-7.215c-3.072 2.124-6.133 4.306-6.865 6.91-.708 2.536-.285 4.021.275 4.854z" fill="#fff"/><path fill-rule="evenodd" clip-rule="evenodd" d="M333.849 348.557l45.01-20.033-1.485-3.337-45.01 20.033 1.485 3.337zm86.928-125.873c-40.67-1.09-74.01-1.282-73.113 6.61.899 7.908 4.386 8.766 38.081 8.955 33.695.191 45.117-.522 45.499-6.614.38-6.093-3.237-8.757-10.467-8.951zm-76.186 107.645c.469.366 1.051.88 1.622 1.507a.58.58 0 00.811.035.563.563 0 00.046-.8 14.305 14.305 0 00-1.588-1.507c-.274.25-.571.502-.891.765zm2.285-2.125a13.51 13.51 0 012.136 1.839.553.553 0 00.422.183.575.575 0 00.389-.148.575.575 0 00.022-.811 15.2 15.2 0 00-2.101-1.862 9.538 9.538 0 01-.868.799zm2.319-2.318a13.45 13.45 0 012.215 1.336.54.54 0 00.343.115.578.578 0 00.457-.23.58.58 0 00-.114-.799 15.428 15.428 0 00-2.148-1.336 14.07 14.07 0 01-.753.914zm1.895-2.445c.538.287 1.211.686 1.897 1.188a.53.53 0 00.342.115.58.58 0 00.457-.229.578.578 0 00-.114-.799 14.104 14.104 0 00-1.953-1.223c-.183.309-.4.629-.629.948zm-96.804-33.694a.573.573 0 00.301-1.058c-3-1.845-4.701-4.788-4.718-4.818a.571.571 0 10-.992.567c.074.131 1.865 3.227 5.11 5.224a.566.566 0 00.299.085zm2.372-2.079a.573.573 0 00.3-1.058c-2.989-1.839-4.701-4.788-4.717-4.819a.572.572 0 00-.993.567c.075.13 1.866 3.228 5.111 5.225a.566.566 0 00.299.085zm2.574-2.042a.57.57 0 00.3-1.058c-2.989-1.839-4.701-4.789-4.718-4.818a.57.57 0 00-.992.567c.076.131 1.866 3.227 5.112 5.224a.56.56 0 00.298.085zm2.397-2.547a.572.572 0 00.3-1.057c-2.989-1.839-4.701-4.788-4.717-4.818a.572.572 0 00-.992.567c.075.131 1.865 3.228 5.111 5.224a.56.56 0 00.298.084z" fill="#fff"/><path fill-rule="evenodd" clip-rule="evenodd" d="M311.978 155.012c7.754.208 12.397 2.623 16.657 3.711 8.567 2.19 39.229 2.476 45.117-9.565 5.951-12.171 12.183-45.831 26.141-43.235 6.765 1.258 10.981 17.392 6.602 26.72-2.284 4.865-5.711 3.236-5.711 3.236s-11.325 29.889-25.158 35.599c-21.21 8.757-43.972-2.144-50.418-2.688-1.3-.11-2.453-.299-3.482-.539-3.239-.757-6.598-.407-9.712.761-1.135.426-2.037.484-2.637-.294-.931-1.208 1.387-3.003 3.777-4.425a3.781 3.781 0 00-1.118-.311c-2.632-.254-6.281 5.11-8.102 2.309-1.664-2.562 6.55-6.693 6.55-6.693s-3.123.018-4.884.934c-2.03 1.057-3.902 4.664-5.396 3.332-1.493-1.333 3.555-9.074 11.774-8.852z" fill="#FBA1A2"/><path fill-rule="evenodd" clip-rule="evenodd" d="M275.951 268.625c1.047 4.716-6.068 9.637-10.03 7.603-3.997-2.052-3.295-5.285-3.106-6.139.336-1.517 2.49-4.231 5.188-5.14 5.851-1.972 7.948 3.676 7.948 3.676z" fill="#fff"/><path fill-rule="evenodd" clip-rule="evenodd" d="M280.116 244.18s-11.304 18.722-15.512 24.612c-2.285 4.095 1.289 7.475 5.614 5.999 1.445-.493 2.637-1.523 3.505-2.779 4.589-6.639 17.409-23.149 17.409-23.149l-11.016-4.683z" fill="#FBA1A2"/><path fill-rule="evenodd" clip-rule="evenodd" d="M268.478 261.046c-2.189 6.283 10.804 7.139 10.804 7.139 36.357-35.225 37.002-57.062 47.846-59.917 15.614-2.662 44.339 21.078 75.945 17.846 31.592-3.232 25.882-22.467 18.743-46.637-1.37 1.656-16.014 4.569-37.853-2.992-.194 1.188-.959 6.488-1.907 7.151a3.786 3.786 0 01-2.468.673l-.239-.034c-21.965-3.335-54.051-3.438-61.375-.253-22.36 9.728-49.496 77.024-49.496 77.024z" fill="#64B564"/><path fill-rule="evenodd" clip-rule="evenodd" d="M352.959 71.17c.648 1.328 1.732 2.133 2.424 1.796.691-.337.726-1.687.078-3.016-.647-1.33-1.732-2.134-2.423-1.797-.692.336-.727 1.687-.079 3.016z" fill="#003645"/><path fill-rule="evenodd" clip-rule="evenodd" d="M356.405 67.889c-4.356-1.642-5.354-.076-4.896 1.384.132.42-.887.92-1.852.268 0 0 1.166.202 1.393-.42.112-.31-1.047-1.535.267-2.428 2.609-1.77 5.088 1.196 5.088 1.196z" fill="#003645"/><path opacity=".3" fill-rule="evenodd" clip-rule="evenodd" d="M382.056 183.635c3.883-.411 11.742-.262 19.52 3.484.56.274.765.971.468 1.507-.205.355-.57.56-.959.56a1.07 1.07 0 01-.48-.113c-2.239-1.131-19.531-3.907-21.016-4.764a3.785 3.785 0 002.467-.674z" fill="#1B2125"/><path fill-rule="evenodd" clip-rule="evenodd" d="M331.253 204.412c3.658 1.36-3.114 4.878-3.114 4.878l-4.448.571c5.72-3.568 6.085-5.998 7.562-5.449z" fill="#4D8850"/><path fill-rule="evenodd" clip-rule="evenodd" d="M344.336 62.168c10.393 5.204 22.742 8.69 28.31 4.089 7.639 11.873-5.988 36.974 15.526 36.213 13.365 0 17.896 3.89 24.112 20.421 12.842 34.151 56.01 25.484 57.623 4.952 1.301-16.553-11.492-20.023-13.389-29.347-1.805-8.87.162-11.664.162-21.434 0-14.162-12.359-22.443-27.159-21.544-18.237 1.107-32.145-6.924-41.18-16.608-5.741-6.15-16.115-9.793-23.87-8.725-20.544 2.828-27.757 18.307-26.616 25.541.528 3.343 3.194 4.796 6.481 6.442z" fill="#004C61"/><path fill-rule="evenodd" clip-rule="evenodd" d="M354.25 86.433c.331 0 3.263-.104 6.906-3.617a.636.636 0 00-.881-.914c-3.35 3.23-5.969 3.261-6.025 3.261h-.007a.637.637 0 00-.637.624.634.634 0 00.616.646h.028z" fill="#C85D5E"/><path fill-rule="evenodd" clip-rule="evenodd" d="M358.51 69.958c5.774-1.347 16.272-6.384 16.716-6.597l-.551-1.144c-.107.05-10.815 5.189-16.454 6.504l.289 1.237z" fill="#fff"/><path fill-rule="evenodd" clip-rule="evenodd" d="M368.483 66.672a5.568 5.568 0 1011.136 0 5.568 5.568 0 00-11.136 0z" fill="#FBA1A2"/><path fill-rule="evenodd" clip-rule="evenodd" d="M372.79 70.157c-1.37 0 .533-7.093 2.656-5.405.559.446-1.316 1.678-1.598 2.562-.486 1.523-.088 2.843-1.058 2.843z" fill="#DF7E80"/><path fill-rule="evenodd" clip-rule="evenodd" d="M347.428 65.563c3.099-2.427 9.634-1.933 8.978-2.785-.34-.44-2.808-1.475-6.462-.57-4.616 1.14-3.416 4.06-2.516 3.355z" fill="#003645"/><path clip-rule="evenodd" d="M349.222 73.537c1.959 3.659 5.537 5.56 7.99 4.245 2.452-1.314 2.852-5.345.891-9.004-1.96-3.659-5.538-5.559-7.991-4.245-2.452 1.315-2.851 5.345-.89 9.004z" stroke="#fff" stroke-width="1.756"/><path fill-rule="evenodd" clip-rule="evenodd" d="M346.425 74.216c.001 0 .616-.61 2.509-.647l-.026-1.27c-2.523.051-3.375 1.002-3.464 1.11l.981.807z" fill="#fff"/><path fill-rule="evenodd" clip-rule="evenodd" d="M200.779 156.094c0 .9 5.178 1.63 11.564 1.63 6.388 0 11.566-.73 11.566-1.63 0-.9-5.178-1.63-11.566-1.63-6.386 0-11.564.73-11.564 1.63z" fill="#1B2125"/><path fill-rule="evenodd" clip-rule="evenodd" d="M199.109 142.07v1.942a6.853 6.853 0 002.718 5.471c.388.297.811.548 1.256.766.88.411 1.874.639 2.913.639h2.582c.079 0 .159 0 .227-.023a2.064 2.064 0 001.84-2.044 2.063 2.063 0 00-2.067-2.056h-2.582c-.399 0-.777-.091-1.119-.252a2.714 2.714 0 01-1.633-2.501v-1.942c0-1.13-.927-2.056-2.068-2.056a2.065 2.065 0 00-2.067 2.056z" fill="#004C61"/><path fill-rule="evenodd" clip-rule="evenodd" d="M203.083 150.249c.88.41 1.874.639 2.913.639h2.582c.079 0 .159 0 .227-.022.858-1.052.949-2.662.914-3.759a2.065 2.065 0 00-1.141-.342h-2.582c-.399 0-.777-.092-1.119-.252.308 2.137-.72 3.359-1.794 3.736z" fill="#003645"/><path fill-rule="evenodd" clip-rule="evenodd" d="M225.722 142.07v1.942a6.854 6.854 0 01-2.719 5.471c-.388.297-.81.548-1.256.766a6.883 6.883 0 01-2.913.639h-2.581c-.08 0-.159 0-.229-.023a2.065 2.065 0 01-1.839-2.044 2.063 2.063 0 012.068-2.056h2.581c.4 0 .777-.091 1.119-.252a2.715 2.715 0 001.634-2.501v-1.942c0-1.13.925-2.056 2.068-2.056 1.142 0 2.067.926 2.067 2.056z" fill="#004C61"/><path fill-rule="evenodd" clip-rule="evenodd" d="M221.747 150.249c-.88.41-1.873.639-2.913.639h-2.581c-.08 0-.159 0-.229-.022-.857-1.052-.948-2.662-.913-3.759a2.065 2.065 0 011.142-.342h2.581c.4 0 .777-.092 1.12-.252-.308 2.137.719 3.359 1.793 3.736z" fill="#003645"/><path fill-rule="evenodd" clip-rule="evenodd" d="M212.415 164.875h.001a6.455 6.455 0 006.454-6.454v-20.942a6.455 6.455 0 00-12.909 0v20.942a6.454 6.454 0 006.454 6.454z" fill="#0EBECC"/><path fill-rule="evenodd" clip-rule="evenodd" d="M205.962 137.479v20.937a6.457 6.457 0 006.453 6.465 6.458 6.458 0 006.454-6.465v-20.937a6.455 6.455 0 00-12.907 0z" fill="#003645"/><path fill-rule="evenodd" clip-rule="evenodd" d="M205.962 137.479v10.531c0 3.563 2.889 5.311 6.453 5.311 3.564 0 6.454-1.748 6.454-5.311v-10.531a6.455 6.455 0 00-12.907 0z" fill="#004C61"/><path fill-rule="evenodd" clip-rule="evenodd" d="M217.394 135.355a.631.631 0 00.449-.186l1.228-1.228a.636.636 0 00-.899-.898l-1.228 1.228a.635.635 0 00.45 1.084zm-9.957 0a.635.635 0 00.449-1.084l-1.228-1.228a.635.635 0 00-.898.898l1.228 1.228a.628.628 0 00.449.186zm-.643 6.362a.634.634 0 00.181-1.243l-1.664-.497a.636.636 0 00-.363 1.217l1.664.496a.642.642 0 00.182.027zm18.062 1.599a.636.636 0 00.361-.113l1.427-.989a.635.635 0 00-.723-1.044l-1.427.989a.635.635 0 00.362 1.157zm.772 4.596a.635.635 0 00.289-1.201l-1.546-.79a.634.634 0 10-.578 1.131l1.547.79c.092.047.191.07.288.07zm-25.796-4.596a.635.635 0 00.362-1.157l-1.427-.989a.635.635 0 10-.723 1.044l1.427.989c.11.076.237.113.361.113zm-.772 4.596a.634.634 0 00.288-.07l1.546-.79a.635.635 0 00-.578-1.131l-1.545.79a.635.635 0 00.289 1.201zm18.977-6.195a.63.63 0 00.181-.027l1.664-.496a.635.635 0 10-.363-1.217l-1.664.497a.634.634 0 00.182 1.243zm-13.128 7.171a.652.652 0 00.174-.024l1.671-.476a.634.634 0 10-.348-1.221l-1.67.476a.635.635 0 00.173 1.245zm.005 7.151a.64.64 0 00.45-.185l1.227-1.229a.634.634 0 10-.898-.897l-1.228 1.227a.636.636 0 00.449 1.084zm15.006-7.151a.635.635 0 00.174-1.245l-1.669-.476a.635.635 0 00-.348 1.221l1.67.476a.65.65 0 00.173.024zm-.221 7.415a.635.635 0 00.449-1.084l-1.227-1.228a.635.635 0 10-.898.898l1.227 1.228a.636.636 0 00.449.186zm-7.284-23.669a.634.634 0 00.635-.634v-1.737a.635.635 0 00-1.27 0V132c0 .35.284.634.635.634zm0 5.382a.635.635 0 00.635-.635v-1.736a.635.635 0 10-1.27 0v1.736c0 .351.284.635.635.635zm-.071 9.373c.35 0 .634-.285.634-.635v-1.737a.635.635 0 00-1.269 0v1.737c0 .35.284.635.635.635zm2.527-4.936a.636.636 0 00.576-.367l.734-1.574a.634.634 0 00-1.152-.536l-.733 1.573a.635.635 0 00.575.904zm-4.912 0a.634.634 0 00.575-.904l-.733-1.573a.634.634 0 10-1.151.536l.733 1.574a.636.636 0 00.576.367zm4.912 9.16a.635.635 0 00.576-.367l.734-1.574a.635.635 0 00-1.152-.536l-.733 1.573a.635.635 0 00.575.904zm-4.912 0a.634.634 0 00.575-.904l-.733-1.573a.635.635 0 10-1.151.536l.733 1.574a.636.636 0 00.576.367zm3.769 6.394c.24 0 .468-.135.577-.367l.734-1.573a.635.635 0 00-1.152-.537l-.734 1.574a.636.636 0 00.575.903zm-2.626 0a.636.636 0 00.575-.903l-.734-1.574a.634.634 0 10-1.151.537l.734 1.573a.634.634 0 00.576.367z" fill="#fff"/><path fill-rule="evenodd" clip-rule="evenodd" d="M212.344 176.485c6.387 0 11.565-5.178 11.565-11.565v-8.826c-2.356 1.976-20.703 2.268-23.13-.021v8.847c0 6.387 5.178 11.565 11.565 11.565z" fill="#FFE121"/><path fill-rule="evenodd" clip-rule="evenodd" d="M404.516 128.953c-.143 2.427-3.734 6.93-3.734 6.93 2.021-9.143 3.876-9.357 3.734-6.93z" fill="#DF7E80"/></svg>